<svg xmlns="http://www.w3.org/2000/svg" viewBox="0 0 512 512" role="img" aria-label="EOS">
  <rect width="512" height="512" rx="112" fill="#f7f4f0"/>
  <g transform="translate(55 140) scale(.4)" fill="none" stroke-linecap="round" stroke-linejoin="round">
    <path d="M304 258H112a145 145 0 1 0 190 119" stroke="#0b0b0b" stroke-width="58"/>
    <path d="M304 258H112a145 145 0 1 0 190 119" stroke="#f7f4f0" stroke-width="16"/>
    <path d="M112 258a145 145 0 0 1 222-92" stroke="#ff4b16" stroke-width="58"/>
    <path d="M112 258a145 145 0 0 1 222-92" stroke="#f7f4f0" stroke-width="16"/>
    <path d="M304 377 438 184" stroke="#0b0b0b" stroke-width="58"/>
    <path d="M304 377 438 184" stroke="#f7f4f0" stroke-width="16"/>
    <ellipse cx="600" cy="258" rx="150" ry="145" stroke="#0b0b0b" stroke-width="58"/>
    <ellipse cx="600" cy="258" rx="150" ry="145" stroke="#f7f4f0" stroke-width="16"/>
    <path d="M735 258C760 258 772 221 796 205" stroke="#0b0b0b" stroke-width="58"/>
    <path d="M735 258C760 258 772 221 796 205" stroke="#f7f4f0" stroke-width="16"/>
    <path d="M760 185 830 258 760 331" stroke="#0b0b0b" stroke-width="58"/>
    <path d="M760 185 830 258 760 331" stroke="#f7f4f0" stroke-width="16"/>
    <path d="M796 311C816 333 828 346 850 348" stroke="#0b0b0b" stroke-width="58"/>
    <path d="M796 311C816 333 828 346 850 348" stroke="#f7f4f0" stroke-width="16"/>
    <path d="M1046 174c-22-24-58-35-104-35-59 0-94 23-94 61 0 37 31 51 96 66 71 16 104 38 104 78 0 42-40 68-106 68-50 0-91-14-116-42" stroke="#0b0b0b" stroke-width="58"/>
    <path d="M1046 174c-22-24-58-35-104-35-59 0-94 23-94 61 0 37 31 51 96 66 71 16 104 38 104 78 0 42-40 68-106 68-50 0-91-14-116-42" stroke="#f7f4f0" stroke-width="16"/>
  </g>
</svg>
