<svg xmlns="http://www.w3.org/2000/svg" viewBox="0 0 1200 600" role="img" aria-labelledby="title desc">
  <title id="title">EOS</title>
  <desc id="desc">Evolve. Outrun. Shine.</desc>
  <rect width="1200" height="600" rx="28" fill="#f7f4f0"/>

  <!-- Continuous eOS mark: black outer ribbon with a warm white inner channel. -->
  <g fill="none" stroke-linecap="round" stroke-linejoin="round">
    <path d="M304 258H112a145 145 0 1 0 190 119" stroke="#0b0b0b" stroke-width="58"/>
    <path d="M304 258H112a145 145 0 1 0 190 119" stroke="#f7f4f0" stroke-width="16"/>
    <path d="M112 258a145 145 0 0 1 222-92" stroke="#ff4b16" stroke-width="58"/>
    <path d="M112 258a145 145 0 0 1 222-92" stroke="#f7f4f0" stroke-width="16"/>

    <path d="M304 377 438 184" stroke="#0b0b0b" stroke-width="58"/>
    <path d="M304 377 438 184" stroke="#f7f4f0" stroke-width="16"/>

    <ellipse cx="600" cy="258" rx="150" ry="145" stroke="#0b0b0b" stroke-width="58"/>
    <ellipse cx="600" cy="258" rx="150" ry="145" stroke="#f7f4f0" stroke-width="16"/>

    <path d="M735 258C760 258 772 221 796 205" stroke="#0b0b0b" stroke-width="58"/>
    <path d="M735 258C760 258 772 221 796 205" stroke="#f7f4f0" stroke-width="16"/>

    <path d="M760 185 830 258 760 331" stroke="#0b0b0b" stroke-width="58"/>
    <path d="M760 185 830 258 760 331" stroke="#f7f4f0" stroke-width="16"/>

    <path d="M796 311C816 333 828 346 850 348" stroke="#0b0b0b" stroke-width="58"/>
    <path d="M796 311C816 333 828 346 850 348" stroke="#f7f4f0" stroke-width="16"/>

    <path d="M1046 174c-22-24-58-35-104-35-59 0-94 23-94 61 0 37 31 51 96 66 71 16 104 38 104 78 0 42-40 68-106 68-50 0-91-14-116-42" stroke="#0b0b0b" stroke-width="58"/>
    <path d="M1046 174c-22-24-58-35-104-35-59 0-94 23-94 61 0 37 31 51 96 66 71 16 104 38 104 78 0 42-40 68-106 68-50 0-91-14-116-42" stroke="#f7f4f0" stroke-width="16"/>
  </g>

  <g font-family="Inter, Arial, sans-serif" font-size="42" font-weight="700" letter-spacing="13">
    <text x="180" y="500" fill="#ff4b16">E</text>
    <text x="224" y="500" fill="#0b0b0b">volve.</text>
    <text x="527" y="500" fill="#ff4b16">O</text>
    <text x="578" y="500" fill="#0b0b0b">utrun.</text>
    <text x="875" y="500" fill="#ff4b16">S</text>
    <text x="930" y="500" fill="#0b0b0b">hine.</text>
  </g>
</svg>
